<mxfile host="app.diagrams.net" modified="2023-12-20T15:25:32.856Z" agent="Mozilla/5.0 (Macintosh; Intel Mac OS X 10_15_7) AppleWebKit/537.36 (KHTML, like Gecko) Chrome/120.0.0.0 Safari/537.36" version="22.1.11" etag="K8pCW-8FgZgVVgVZP8yP" type="github">
  <diagram name="PÃ¡gina-1" id="9JlhHZ1ETHGfpqIGW7qK">
    <mxGraphModel>
      <root>
        <mxCell id="0" />
        <mxCell id="1" parent="0" />
      </root>
    </mxGraphModel>
  </diagram>
</mxfile>
